<?xml version="1.0" encoding="utf-8"?>
<svg xmlns="http://www.w3.org/2000/svg" xmlns:xlink="http://www.w3.org/1999/xlink" style="margin: auto; background: none; display: block; shape-rendering: auto;" width="204px" height="204px" viewBox="0 0 100 100" preserveAspectRatio="xMidYMid">
<g transform="rotate(0 50 50)">
  <rect x="40.5" y="26" rx="9.5" ry="6" width="19" height="12" fill="#71f2fe">
    <animate attributeName="opacity" values="1;0" keyTimes="0;1" dur="0.9615384615384615s" begin="-0.9109311740890688s" repeatCount="indefinite"></animate>
  </rect>
</g><g transform="rotate(18.94736842105263 50 50)">
  <rect x="40.5" y="26" rx="9.5" ry="6" width="19" height="12" fill="#71f2fe">
    <animate attributeName="opacity" values="1;0" keyTimes="0;1" dur="0.9615384615384615s" begin="-0.8603238866396761s" repeatCount="indefinite"></animate>
  </rect>
</g><g transform="rotate(37.89473684210526 50 50)">
  <rect x="40.5" y="26" rx="9.5" ry="6" width="19" height="12" fill="#71f2fe">
    <animate attributeName="opacity" values="1;0" keyTimes="0;1" dur="0.9615384615384615s" begin="-0.8097165991902834s" repeatCount="indefinite"></animate>
  </rect>
</g><g transform="rotate(56.8421052631579 50 50)">
  <rect x="40.5" y="26" rx="9.5" ry="6" width="19" height="12" fill="#71f2fe">
    <animate attributeName="opacity" values="1;0" keyTimes="0;1" dur="0.9615384615384615s" begin="-0.7591093117408906s" repeatCount="indefinite"></animate>
  </rect>
</g><g transform="rotate(75.78947368421052 50 50)">
  <rect x="40.5" y="26" rx="9.5" ry="6" width="19" height="12" fill="#71f2fe">
    <animate attributeName="opacity" values="1;0" keyTimes="0;1" dur="0.9615384615384615s" begin="-0.7085020242914979s" repeatCount="indefinite"></animate>
  </rect>
</g><g transform="rotate(94.73684210526316 50 50)">
  <rect x="40.5" y="26" rx="9.5" ry="6" width="19" height="12" fill="#71f2fe">
    <animate attributeName="opacity" values="1;0" keyTimes="0;1" dur="0.9615384615384615s" begin="-0.6578947368421052s" repeatCount="indefinite"></animate>
  </rect>
</g><g transform="rotate(113.6842105263158 50 50)">
  <rect x="40.5" y="26" rx="9.5" ry="6" width="19" height="12" fill="#71f2fe">
    <animate attributeName="opacity" values="1;0" keyTimes="0;1" dur="0.9615384615384615s" begin="-0.6072874493927125s" repeatCount="indefinite"></animate>
  </rect>
</g><g transform="rotate(132.6315789473684 50 50)">
  <rect x="40.5" y="26" rx="9.5" ry="6" width="19" height="12" fill="#71f2fe">
    <animate attributeName="opacity" values="1;0" keyTimes="0;1" dur="0.9615384615384615s" begin="-0.5566801619433198s" repeatCount="indefinite"></animate>
  </rect>
</g><g transform="rotate(151.57894736842104 50 50)">
  <rect x="40.5" y="26" rx="9.5" ry="6" width="19" height="12" fill="#71f2fe">
    <animate attributeName="opacity" values="1;0" keyTimes="0;1" dur="0.9615384615384615s" begin="-0.5060728744939271s" repeatCount="indefinite"></animate>
  </rect>
</g><g transform="rotate(170.52631578947367 50 50)">
  <rect x="40.5" y="26" rx="9.5" ry="6" width="19" height="12" fill="#71f2fe">
    <animate attributeName="opacity" values="1;0" keyTimes="0;1" dur="0.9615384615384615s" begin="-0.4554655870445344s" repeatCount="indefinite"></animate>
  </rect>
</g><g transform="rotate(189.47368421052633 50 50)">
  <rect x="40.5" y="26" rx="9.5" ry="6" width="19" height="12" fill="#71f2fe">
    <animate attributeName="opacity" values="1;0" keyTimes="0;1" dur="0.9615384615384615s" begin="-0.4048582995951417s" repeatCount="indefinite"></animate>
  </rect>
</g><g transform="rotate(208.42105263157896 50 50)">
  <rect x="40.5" y="26" rx="9.5" ry="6" width="19" height="12" fill="#71f2fe">
    <animate attributeName="opacity" values="1;0" keyTimes="0;1" dur="0.9615384615384615s" begin="-0.35425101214574894s" repeatCount="indefinite"></animate>
  </rect>
</g><g transform="rotate(227.3684210526316 50 50)">
  <rect x="40.5" y="26" rx="9.5" ry="6" width="19" height="12" fill="#71f2fe">
    <animate attributeName="opacity" values="1;0" keyTimes="0;1" dur="0.9615384615384615s" begin="-0.30364372469635625s" repeatCount="indefinite"></animate>
  </rect>
</g><g transform="rotate(246.31578947368422 50 50)">
  <rect x="40.5" y="26" rx="9.5" ry="6" width="19" height="12" fill="#71f2fe">
    <animate attributeName="opacity" values="1;0" keyTimes="0;1" dur="0.9615384615384615s" begin="-0.25303643724696356s" repeatCount="indefinite"></animate>
  </rect>
</g><g transform="rotate(265.2631578947368 50 50)">
  <rect x="40.5" y="26" rx="9.5" ry="6" width="19" height="12" fill="#71f2fe">
    <animate attributeName="opacity" values="1;0" keyTimes="0;1" dur="0.9615384615384615s" begin="-0.20242914979757085s" repeatCount="indefinite"></animate>
  </rect>
</g><g transform="rotate(284.2105263157895 50 50)">
  <rect x="40.5" y="26" rx="9.5" ry="6" width="19" height="12" fill="#71f2fe">
    <animate attributeName="opacity" values="1;0" keyTimes="0;1" dur="0.9615384615384615s" begin="-0.15182186234817813s" repeatCount="indefinite"></animate>
  </rect>
</g><g transform="rotate(303.1578947368421 50 50)">
  <rect x="40.5" y="26" rx="9.5" ry="6" width="19" height="12" fill="#71f2fe">
    <animate attributeName="opacity" values="1;0" keyTimes="0;1" dur="0.9615384615384615s" begin="-0.10121457489878542s" repeatCount="indefinite"></animate>
  </rect>
</g><g transform="rotate(322.10526315789474 50 50)">
  <rect x="40.5" y="26" rx="9.5" ry="6" width="19" height="12" fill="#71f2fe">
    <animate attributeName="opacity" values="1;0" keyTimes="0;1" dur="0.9615384615384615s" begin="-0.05060728744939271s" repeatCount="indefinite"></animate>
  </rect>
</g><g transform="rotate(341.05263157894734 50 50)">
  <rect x="40.5" y="26" rx="9.5" ry="6" width="19" height="12" fill="#71f2fe">
    <animate attributeName="opacity" values="1;0" keyTimes="0;1" dur="0.9615384615384615s" begin="0s" repeatCount="indefinite"></animate>
  </rect>
</g>
<!-- [ldio] generated by https://loading.io/ --></svg>